<?xml version="1.0" encoding="utf-8"?>
<svg xmlns="http://www.w3.org/2000/svg" viewBox="0 0 32 32" width="512" height="512">
  <path d="M23 5C20.800781 5 19 6.800781 19 9C19 9.777344 19.234375 10.5 19.625 11.117188L16.519531 15L11.855469 15C11.40625 13.285156 9.851563 12 8 12C5.800781 12 4 13.800781 4 16C4 18.199219 5.800781 20 8 20C9.851563 20 11.40625 18.714844 11.855469 17L16.519531 17L19.625 20.882813C19.234375 21.5 19 22.222656 19 23C19 25.199219 20.800781 27 23 27C25.199219 27 27 25.199219 27 23C27 20.800781 25.199219 19 23 19C22.304688 19 21.660156 19.195313 21.089844 19.511719L18.28125 16L21.089844 12.488281C21.660156 12.804688 22.304688 13 23 13C25.199219 13 27 11.199219 27 9C27 6.800781 25.199219 5 23 5 Z M 23 7C24.117188 7 25 7.882813 25 9C25 10.117188 24.117188 11 23 11C21.882813 11 21 10.117188 21 9C21 7.882813 21.882813 7 23 7 Z M 8 14C9.117188 14 10 14.882813 10 16C10 17.117188 9.117188 18 8 18C6.882813 18 6 17.117188 6 16C6 14.882813 6.882813 14 8 14 Z M 23 21C24.117188 21 25 21.882813 25 23C25 24.117188 24.117188 25 23 25C21.882813 25 21 24.117188 21 23C21 21.882813 21.882813 21 23 21Z" fill="#F55422" />
</svg>