<?xml version="1.0" encoding="utf-8"?>
<svg xmlns="http://www.w3.org/2000/svg" viewBox="0 0 128 128" width="512" height="512">
  <path d="M64.347656 1.0195312C63.199609 1.0101563 62.050391 1.0371094 60.900391 1.0996094C47.900391 1.7996094 35.7 7.3992188 26.5 16.699219C17.2 25.999219 11.699609 38.300781 11.099609 51.300781C10.099609 70.000781 18.800781 87.5 34.300781 98C35.700781 98.9 37.6 98.599219 38.5 97.199219C39.4 95.799219 39.099219 93.9 37.699219 93C23.999219 83.7 16.199609 68.199609 17.099609 51.599609C18.199609 27.999609 37.599219 8.3996094 61.199219 7.0996094C69.399219 6.5996094 77.500781 8.3003906 84.800781 11.900391C97.300781 18.100391 106.6 30.200391 109.5 44.400391L115.90039 75.099609C115.90039 75.199609 116 75.300391 116 75.400391C116.3 76.500391 116.10078 77.600391 115.30078 78.400391L112.5 81.199219C110.9 82.899219 110 85.1 110 87.5L110 102C110 104.8 107.8 107 105 107L97 107C89.8 107 84 112.8 84 120L84 124C84 125.7 85.3 127 87 127C88.7 127 90 125.7 90 124L90 120C90 116.1 93.1 113 97 113L105 113C111.1 113 116 108.1 116 102L116 87.5C116 86.7 116.30078 86.000391 116.80078 85.400391L119.59961 82.599609C121.89961 80.299609 122.70078 76.900781 121.80078 73.800781L115.40039 43.199219C112.00039 27.199219 101.6 13.5 87.5 6.5C80.325 2.9125 72.383984 1.0851563 64.347656 1.0195312 z M 72 29.644531C70.81875 29.705469 69.750781 30.399609 69.300781 31.599609L52.800781 76C52.300781 77.6 52.999609 79.300391 54.599609 79.900391C54.899609 80.000391 55.100391 80.099609 55.400391 80.099609C56.700391 80.299609 58 79.499219 58.5 78.199219L75.099609 33.900391C75.699609 32.300391 74.899219 30.600781 73.199219 29.800781C72.799219 29.675781 72.39375 29.624219 72 29.644531 z M 46.037109 40.9375C45.274609 40.9 44.500391 41.149219 43.900391 41.699219L31.800781 52.800781C31.200781 53.300781 30.800781 54.2 30.800781 55C30.800781 55.8 31.200781 56.599219 31.800781 57.199219L43.900391 68.199219C44.500391 68.799219 45.200391 69 45.900391 69C46.700391 69 47.499609 68.7 48.099609 68C49.199609 66.8 49.100391 64.900781 47.900391 63.800781L38.300781 55L47.900391 46.099609C49.100391 44.999609 49.199609 43.100391 48.099609 41.900391C47.549609 41.300391 46.799609 40.975 46.037109 40.9375 z M 81.962891 41.136719C81.200391 41.174219 80.450391 41.499609 79.900391 42.099609C78.800391 43.299609 78.899609 45.200781 80.099609 46.300781L89.699219 55.099609L80.099609 63.900391C78.899609 65.000391 78.800391 66.899609 79.900391 68.099609C80.500391 68.799609 81.299609 69.099609 82.099609 69.099609C82.799609 69.099609 83.499609 68.800781 84.099609 68.300781L96.199219 57.199219C96.799219 56.699219 97.199219 55.999219 97.199219 55.199219C97.199219 54.399219 96.799219 53.6 96.199219 53L84.099609 41.900391C83.499609 41.350391 82.725391 41.099219 81.962891 41.136719 z" fill="#F55422" />
</svg>