<?xml version="1.0" encoding="UTF-8"?>
<svg xmlns="http://www.w3.org/2000/svg" xmlns:xlink="http://www.w3.org/1999/xlink" width="512pt" height="512pt" viewBox="0 0 512 512" version="1.1">
<g id="surface1">
<path style=" stroke:none;fill-rule:evenodd;fill:#CDCDCD;fill-opacity:1;" d="M 256 64 C 149.9375 64 64 149.9375 64 256 C 64 340.8125 119 412.8125 195.3125 438.1875 C 204.9375 439.9375 208.4375 434.0625 208.4375 428.9375 C 208.4375 424.375 208.25 412.3125 208.1875 396.3125 C 154.75 407.875 143.5 370.5625 143.5 370.5625 C 134.75 348.375 122.1875 342.4375 122.1875 342.4375 C 104.75 330.5625 123.5 330.8125 123.5 330.8125 C 142.75 332.1875 152.875 350.5625 152.875 350.5625 C 170 379.9375 197.8125 371.4375 208.75 366.5625 C 210.5 354.125 215.5 345.6875 220.9375 340.875 C 178.3125 336.0625 133.5 319.5625 133.5 246 C 133.5 225 141 207.875 153.25 194.4375 C 151.3125 189.625 144.6875 170.0625 155.125 143.625 C 155.125 143.625 171.25 138.5 207.9375 163.3125 C 223.25 159.0625 239.6875 156.9375 256 156.875 C 272.3125 156.9375 288.75 159.0625 304.0625 163.3125 C 340.75 138.5 356.8125 143.625 356.8125 143.625 C 367.3125 170.0625 360.75 189.625 358.75 194.4375 C 371.0625 207.875 378.4375 225 378.4375 246 C 378.4375 319.75 333.5625 335.9375 290.8125 340.75 C 297.6875 346.625 303.8125 358.375 303.8125 376.25 C 303.8125 401.9375 303.625 422.625 303.625 428.9375 C 303.625 434.0625 307.0625 440.0625 316.8125 438.1875 C 393.0625 412.75 448 340.8125 448 256 C 448 149.9375 362.0625 64 256 64 Z "/>
</g>
</svg>
