<?xml version="1.0" encoding="UTF-8"?>
<svg xmlns="http://www.w3.org/2000/svg" xmlns:xlink="http://www.w3.org/1999/xlink" width="208pt" height="208pt" viewBox="0 0 208 208" version="1.1">
<g id="surface1">
<path style=" stroke:none;fill-rule:nonzero;fill:#CDCDCD;fill-opacity:1;" d="M 166.4375 0 L 38.410156 0 C 17.203125 0 0 17.203125 0 38.410156 L 0 166.4375 C 0 187.644531 17.203125 204.847656 38.410156 204.847656 L 166.4375 204.847656 C 187.644531 204.847656 204.847656 187.644531 204.847656 166.4375 L 204.847656 38.410156 C 204.847656 17.203125 187.644531 0 166.4375 0 Z M 63.339844 173.886719 L 31.515625 173.886719 L 31.332031 78.601563 L 63.152344 78.601563 Z M 46.625 66.140625 L 46.441406 66.140625 C 36.039063 66.140625 29.328125 58.96875 29.328125 50.042969 C 29.328125 40.902344 36.253906 33.976563 46.84375 33.976563 C 57.429688 33.976563 63.921875 40.902344 64.136719 50.042969 C 64.136719 58.96875 57.398438 66.140625 46.625 66.140625 Z M 173.671875 173.886719 L 141.570313 173.886719 L 141.570313 122.121094 C 141.570313 109.59375 138.25 101.070313 127.046875 101.070313 C 118.488281 101.070313 113.875 106.824219 111.65625 112.394531 C 110.828125 114.394531 110.609375 117.136719 110.609375 119.9375 L 110.609375 173.886719 L 78.355469 173.886719 L 78.171875 78.601563 L 110.425781 78.601563 L 110.609375 92.050781 C 114.734375 85.683594 121.597656 76.664063 138.03125 76.664063 C 158.40625 76.664063 173.640625 89.960938 173.640625 118.550781 L 173.640625 173.886719 Z "/>
</g>
</svg>
