<?xml version="1.0" encoding="utf-8"?>
<svg xmlns="http://www.w3.org/2000/svg" viewBox="0 0 32 32" width="512" height="512">
  <path d="M15.994141 3C15.629141 3 15.264219 3.0895313 14.949219 3.2695312L5.0390625 8.9902344C4.3990625 9.3602344 4 10.060781 4 10.800781L4 21.179688C4 21.929688 4.3990625 22.620234 5.0390625 22.990234L7.640625 24.490234C8.900625 25.110234 9.3499219 25.109375 9.9199219 25.109375C11.789922 25.109375 12.859375 23.979531 12.859375 22.019531L12.859375 11.310547C12.859375 11.150547 12.730312 11.019531 12.570312 11.019531L11.320312 11.019531C11.150313 11.019531 11.029297 11.150547 11.029297 11.310547L11.029297 22.009766C11.029297 22.889766 10.120391 23.749531 8.6503906 23.019531L5.9296875 21.449219C5.8296875 21.399219 5.7695313 21.289687 5.7695312 21.179688L5.7695312 10.810547C5.7695312 10.690547 5.8296875 10.589297 5.9296875 10.529297L15.839844 4.8105469C15.929844 4.7505469 16.050391 4.7505469 16.150391 4.8105469L26.060547 10.529297C26.160547 10.589297 26.220703 10.690781 26.220703 10.800781L26.220703 21.179688C26.220703 21.289687 26.160313 21.399219 26.070312 21.449219L16.150391 27.179688C16.060391 27.229688 15.929844 27.229688 15.839844 27.179688L13.289062 25.669922C13.219062 25.619922 13.120781 25.610391 13.050781 25.650391C12.340781 26.050391 12.210781 26.100078 11.550781 26.330078C11.390781 26.380078 11.140625 26.479766 11.640625 26.759766L14.949219 28.720703C15.269219 28.900703 15.630234 29 15.990234 29C16.360234 29 16.719062 28.900703 17.039062 28.720703L26.960938 22.990234C27.600938 22.620234 28 21.929688 28 21.179688L28 10.810547C28 10.060547 27.600938 9.37 26.960938 9L17.039062 3.2695312C16.724063 3.0895313 16.359141 3 15.994141 3 z M 18.660156 11.005859C15.830156 11.005859 14.140625 12.205078 14.140625 14.205078C14.140625 16.375078 15.819062 16.974141 18.539062 17.244141C21.789062 17.564141 22.039062 18.045547 22.039062 18.685547C22.039062 19.785547 21.150547 20.255859 19.060547 20.255859C16.430547 20.255859 15.850156 19.594922 15.660156 18.294922C15.640156 18.154922 15.520859 18.054688 15.380859 18.054688L14.089844 18.054688C13.929844 18.054688 13.810547 18.185938 13.810547 18.335938C13.810547 20.005937 14.720547 21.994141 19.060547 21.994141C22.200547 21.994141 24 20.755703 24 18.595703C24 16.455703 22.549766 15.884609 19.509766 15.474609C16.419766 15.074609 16.109375 14.864531 16.109375 14.144531C16.109375 13.544531 16.380156 12.755859 18.660156 12.755859C20.690156 12.755859 21.449766 13.194453 21.759766 14.564453C21.789766 14.694453 21.899062 14.794922 22.039062 14.794922L23.330078 14.794922C23.410078 14.794922 23.479063 14.755313 23.539062 14.695312C23.589062 14.645313 23.619375 14.564609 23.609375 14.474609C23.409375 12.114609 21.840156 11.005859 18.660156 11.005859 z" fill="#FFFFFF" />
</svg>