<?xml version="1.0" encoding="utf-8"?>
<svg xmlns="http://www.w3.org/2000/svg" viewBox="0 0 50 50" width="500" height="500">
  <path d="M34.554688 3.984375C33.775003 3.9581582 32.958884 4.0940926 32.140625 4.359375C30.504109 4.889941 28.789203 5.9238848 27.029297 7.3554688C26.339589 7.9165071 25.643623 8.5578288 24.945312 9.2382812C24.262398 8.5751039 23.580733 7.9509974 22.90625 7.4023438C21.147758 5.9719089 19.4375 4.9375672 17.804688 4.4082031C16.171878 3.8788386 14.547223 3.8624356 13.212891 4.6328125C11.878558 5.4031893 11.080619 6.8173558 10.722656 8.4960938C10.364693 10.174832 10.404125 12.173992 10.763672 14.412109C10.888559 15.189511 11.066671 16.005078 11.269531 16.835938C10.507095 17.067004 9.7666767 17.309955 9.0800781 17.578125C7.0079817 18.387438 5.2934468 19.355663 4.0449219 20.507812C2.7963969 21.659962 1.9902344 23.058304 1.9902344 24.59375C1.9902344 26.129196 2.7963969 27.525585 4.0449219 28.677734C5.2934468 29.829884 7.0079817 30.800062 9.0800781 31.609375C9.8142516 31.896126 10.609118 32.154326 11.429688 32.398438C11.134531 33.501278 10.895394 34.571467 10.732422 35.585938C10.372587 37.825853 10.334588 39.825265 10.693359 41.507812C11.052134 43.19036 11.850478 44.612534 13.191406 45.386719C14.532336 46.160905 16.164264 46.141894 17.800781 45.611328C19.437297 45.080762 21.15025 44.048772 22.910156 42.617188C23.593512 42.061316 24.284757 41.427206 24.976562 40.753906C25.671996 41.431263 26.366006 42.068338 27.052734 42.626953C28.811227 44.057387 30.523438 45.089776 32.15625 45.619141C33.789061 46.148505 35.413715 46.164908 36.748047 45.394531C38.082379 44.624154 38.878366 43.209988 39.236328 41.53125C39.59429 39.852512 39.554857 37.855304 39.195312 35.617188C39.031899 34.599965 38.792614 33.526227 38.496094 32.419922C39.343769 32.169866 40.163744 31.904721 40.919922 31.609375C42.992018 30.800062 44.706553 29.829884 45.955078 28.677734C47.203603 27.525585 48.009766 26.129196 48.009766 24.59375C48.009766 23.058304 47.203603 21.659963 45.955078 20.507812C44.706553 19.355663 42.992018 18.387438 40.919922 17.578125C40.22347 17.306107 39.471688 17.059992 38.697266 16.826172C38.901775 15.990221 39.083345 15.168805 39.208984 14.386719C39.568819 12.146804 39.606825 10.145439 39.248047 8.4628906C38.889279 6.7803434 38.088976 5.3601244 36.748047 4.5859375C36.077582 4.1988452 35.334372 4.0105918 34.554688 3.984375 z M 34.462891 6.0195312C34.952154 6.03291 35.369535 6.1493386 35.726562 6.3554688C36.440618 6.7677287 36.968419 7.5700924 37.25 8.890625C37.531581 10.211156 37.521848 11.99533 37.189453 14.064453C37.075647 14.772878 36.910402 15.52369 36.722656 16.292969C34.677151 15.800695 32.435744 15.435401 30.046875 15.220703C28.847638 13.559329 27.615404 12.045781 26.373047 10.703125C27.030182 10.061662 27.683063 9.4617259 28.320312 8.9433594C29.946026 7.6209332 31.485126 6.7210962 32.769531 6.3046875C33.411734 6.0964824 33.973627 6.0061525 34.462891 6.0195312 z M 15.486328 6.0253906C15.978419 6.0116533 16.541491 6.1017415 17.185547 6.3105469C18.473657 6.7281576 20.015452 7.6275969 21.642578 8.9511719C22.267037 9.4591336 22.905298 10.047651 23.548828 10.673828C22.297283 12.027473 21.054862 13.55414 19.847656 15.230469C17.468889 15.449074 15.236606 15.81635 13.201172 16.310547C13.014826 15.545537 12.849558 14.798586 12.736328 14.09375C12.403642 12.02283 12.39534 10.238404 12.677734 8.9140625C12.960128 7.5897208 13.492238 6.7813032 14.212891 6.3652344C14.573216 6.1572002 14.994237 6.0391279 15.486328 6.0253906 z M 24.976562 12.142578C25.791172 13.029071 26.605956 13.99916 27.414062 15.042969C26.620033 15.009861 25.816288 14.990234 25 14.990234C24.167457 14.990234 23.34841 15.010498 22.539062 15.044922C23.347352 14.000306 24.16175 13.029737 24.976562 12.142578 z M 25 17.009766C26.359894 17.009766 27.685348 17.065647 28.974609 17.160156C29.86173 18.434311 30.728648 19.786055 31.554688 21.216797C32.280504 22.473948 32.937328 23.729163 33.535156 24.96875C32.931017 26.224782 32.263184 27.496972 31.527344 28.771484C30.879609 29.893393 30.20319 30.958949 29.515625 31.986328C28.059313 32.10805 26.550303 32.175781 25 32.175781C23.412375 32.175781 21.869462 32.104031 20.380859 31.976562C19.704742 30.963955 19.039735 29.91454 18.402344 28.810547C17.668186 27.538949 17.003577 26.269079 16.400391 25.015625C17.006106 23.755092 17.673701 22.47818 18.412109 21.199219C19.233818 19.775977 20.098207 18.432055 20.980469 17.164062C22.283609 17.067424 23.62445 17.009766 25 17.009766 z M 31.548828 17.410156C33.197299 17.615841 34.745083 17.901405 36.185547 18.244141C35.758129 19.645287 35.231654 21.108808 34.59375 22.619141C34.179567 21.820719 33.750599 21.019585 33.287109 20.216797C32.725422 19.243926 32.140408 18.316416 31.548828 17.410156 z M 18.34375 17.425781C17.764654 18.315097 17.194836 19.224578 16.644531 20.177734C16.175094 20.990823 15.737221 21.802736 15.318359 22.611328C14.68596 21.110075 14.162654 19.654877 13.738281 18.261719C15.168002 17.918363 16.706766 17.633813 18.34375 17.425781 z M 38.164062 18.775391C38.872944 18.989877 39.557566 19.21371 40.185547 19.458984C42.0957 20.205046 43.60665 21.088493 44.585938 21.992188C45.565224 22.895882 45.990234 23.757696 45.990234 24.59375C45.990234 25.429804 45.565225 26.291619 44.585938 27.195312C43.60665 28.099007 42.0957 28.982454 40.185547 29.728516C39.487698 30.001079 38.72096 30.248243 37.923828 30.482422C37.355199 28.723643 36.629408 26.888772 35.765625 25.015625C36.758785 22.865083 37.561088 20.768289 38.164062 18.775391 z M 11.802734 18.785156C12.398803 20.758169 13.190811 22.834118 14.169922 24.962891C13.30047 26.846955 12.571087 28.692254 12 30.460938C11.23096 30.232919 10.490212 29.992451 9.8144531 29.728516C7.9042995 28.982454 6.39335 28.099007 5.4140625 27.195312C4.434775 26.291618 4.0097656 25.429804 4.0097656 24.59375C4.0097656 23.757696 4.434775 22.895882 5.4140625 21.992188C6.39335 21.088493 7.9042995 20.205046 9.8144531 19.458984C10.432774 19.217483 11.105915 18.996837 11.802734 18.785156 z M 25 20C22.250421 20 20 22.250421 20 25C20 27.749579 22.250421 30 25 30C27.749579 30 30 27.749579 30 25C30 22.250421 27.749579 20 25 20 z M 15.341797 27.365234C15.762496 28.177853 16.200028 28.993283 16.671875 29.810547C17.041048 30.449973 17.418073 31.072393 17.800781 31.683594C16.457817 31.497372 15.181231 31.261605 13.982422 30.982422C14.363652 29.81481 14.819744 28.602796 15.341797 27.365234 z M 34.619141 27.365234C35.143284 28.605725 35.599609 29.819681 35.982422 30.990234C34.779808 31.269089 33.499292 31.504052 32.152344 31.689453C32.540071 31.070779 32.922982 30.44057 33.296875 29.792969C33.765252 28.981717 34.201083 28.171917 34.619141 27.365234 z M 13.40625 32.923828C15.216074 33.352568 17.177716 33.681912 19.257812 33.896484C20.64638 35.904859 22.092967 37.709497 23.548828 39.287109C22.897813 39.921859 22.252566 40.517583 21.621094 41.03125C19.99538 42.353677 18.454326 43.251559 17.169922 43.667969C15.885516 44.084378 14.926946 44.029446 14.212891 43.617188C13.498835 43.204927 12.972987 42.402563 12.691406 41.082031C12.409825 39.761499 12.417606 37.979279 12.75 35.910156C12.900793 34.971492 13.12615 33.966374 13.40625 32.923828 z M 36.560547 32.931641C36.842987 33.980548 37.069013 34.98935 37.220703 35.933594C37.553389 38.004513 37.56169 39.788939 37.279297 41.113281C36.996903 42.437623 36.468699 43.247993 35.748047 43.664062C35.027395 44.080132 34.059594 44.13441 32.771484 43.716797C31.483374 43.299186 29.941578 42.399747 28.314453 41.076172C27.678439 40.558811 27.028726 39.958258 26.373047 39.318359C27.838664 37.73459 29.295467 35.920758 30.693359 33.900391C32.778701 33.687251 34.745791 33.359875 36.560547 32.931641 z M 21.867188 34.101562C22.893951 34.157518 23.934244 34.195312 25 34.195312C26.030504 34.195312 27.037063 34.159787 28.03125 34.107422C27.014961 35.478593 25.979034 36.725149 24.947266 37.847656C23.916125 36.722751 22.882144 35.473968 21.867188 34.101562 z" clip-rule="evenodd" fill-rule="evenodd" fill="#FFFFFF" />
</svg>