<?xml version="1.0" encoding="UTF-8"?>
<svg xmlns="http://www.w3.org/2000/svg" xmlns:xlink="http://www.w3.org/1999/xlink" width="208pt" height="208pt" viewBox="0 0 208 208" version="1.1">
<g id="surface1">
<path style=" stroke:none;fill-rule:nonzero;fill:#CDCDCD;fill-opacity:1;" d="M 203.710938 43.917969 C 196.292969 47.210938 188.320313 49.425781 179.949219 50.441406 C 188.476563 45.304688 195.0625 37.207031 198.140625 27.546875 C 190.136719 32.285156 181.273438 35.730469 171.855469 37.578125 C 164.316406 29.546875 153.574219 24.527344 141.664063 24.527344 C 118.828125 24.527344 100.300781 43.054688 100.300781 65.890625 C 100.300781 69.125 100.671875 72.292969 101.378906 75.308594 C 67 73.585938 36.53125 57.089844 16.125 32.070313 C 12.558594 38.195313 10.527344 45.304688 10.527344 52.90625 C 10.527344 67.246094 17.820313 79.894531 28.929688 87.3125 C 22.128906 87.097656 15.757813 85.25 10.1875 82.140625 C 10.1875 82.328125 10.1875 82.480469 10.1875 82.664063 C 10.1875 102.703125 24.4375 119.414063 43.363281 123.230469 C 39.886719 124.183594 36.253906 124.675781 32.46875 124.675781 C 29.792969 124.675781 27.207031 124.429688 24.683594 123.9375 C 29.945313 140.339844 45.210938 152.34375 63.308594 152.652344 C 49.179688 163.761719 31.332031 170.347656 11.941406 170.347656 C 8.585938 170.347656 5.324219 170.164063 2.09375 169.792969 C 20.375 181.519531 42.132813 188.351563 65.492188 188.351563 C 141.570313 188.351563 183.183594 125.320313 183.183594 70.695313 C 183.183594 68.878906 183.152344 67.09375 183.058594 65.308594 C 191.152344 59.523438 198.171875 52.226563 203.710938 43.917969 "/>
</g>
</svg>
